<svg width="12" height="12" viewBox="0 0 12 12" fill="none" xmlns="http://www.w3.org/2000/svg">
<path d="M11.1104 0C11.3689 1.85369e-05 11.5817 0.0836947 11.749 0.250977C11.9163 0.418258 12 0.631132 12 0.889648C12 1.14816 11.9163 1.36103 11.749 1.52832L7.27734 6L11.749 10.4717C11.9163 10.639 12 10.8518 12 11.1104C12 11.3689 11.9163 11.5817 11.749 11.749C11.5817 11.9163 11.3689 12 11.1104 12C10.8518 12 10.639 11.9163 10.4717 11.749L6 7.27734L1.52832 11.749C1.36103 11.9163 1.14816 12 0.889648 12C0.631132 12 0.418258 11.9163 0.250977 11.749C0.0836947 11.5817 1.85369e-05 11.3689 0 11.1104C0 10.8518 0.0837332 10.639 0.250977 10.4717L4.72266 6L0.250977 1.52832C0.0837331 1.36103 0 1.14816 0 0.889648C1.84108e-05 0.631132 0.0836946 0.418259 0.250977 0.250977C0.418259 0.0836946 0.631132 1.84108e-05 0.889648 0C1.14816 0 1.36103 0.0837331 1.52832 0.250977L6 4.72266L10.4717 0.250977C10.639 0.0837332 10.8518 0 11.1104 0Z" fill="#686979"/>
</svg>
