<svg width="120" height="121" viewBox="0 0 120 121" fill="none" xmlns="http://www.w3.org/2000/svg">
<path d="M80 80.1709L60 60.1709L40 80.1709" stroke="#393939" stroke-width="2" stroke-linecap="round" stroke-linejoin="round"/>
<path d="M60 60.1709V105.171" stroke="#393939" stroke-width="2" stroke-linecap="round" stroke-linejoin="round"/>
<path d="M101.95 92.1213C106.826 89.4627 110.679 85.2557 112.899 80.1644C115.119 75.0731 115.581 69.3875 114.211 64.0048C112.841 58.6221 109.717 53.8489 105.333 50.4385C100.949 47.0282 95.5541 45.175 89.9998 45.1713H83.6998C82.1864 39.3175 79.3656 33.883 75.4495 29.2763C71.5335 24.6696 66.624 21.0106 61.0903 18.5743C55.5566 16.1381 49.5426 14.9881 43.5004 15.2107C37.4582 15.4333 31.5451 17.0228 26.2057 19.8596C20.8662 22.6965 16.2394 26.7068 12.6729 31.5892C9.10646 36.4716 6.69325 42.099 5.6147 48.0483C4.53615 53.9976 4.82033 60.114 6.44587 65.9376C8.07141 71.7613 10.996 77.1406 14.9998 81.6713" stroke="#393939" stroke-width="2" stroke-linecap="round" stroke-linejoin="round"/>
<path d="M80 80.1709L60 60.1709L40 80.1709" stroke="#393939" stroke-width="2" stroke-linecap="round" stroke-linejoin="round"/>
</svg>