<svg width="120" height="120" viewBox="0 0 120 120" fill="none" xmlns="http://www.w3.org/2000/svg">
<rect width="120" height="120" rx="3" fill="#D0E2FF"/>
<path d="M36 39.4883C36 37.8314 37.3431 36.4883 39 36.4883H81C82.6569 36.4883 84 37.8314 84 39.4883V81.4883C84 83.1451 82.6569 84.4883 81 84.4883H39C37.3431 84.4883 36 83.1451 36 81.4883V39.4883Z" fill="#D0E2FF"/>
<path d="M62 40.4883H48C46.9391 40.4883 45.9217 40.9097 45.1716 41.6599C44.4214 42.41 44 43.4274 44 44.4883V76.4883C44 77.5491 44.4214 78.5666 45.1716 79.3167C45.9217 80.0669 46.9391 80.4883 48 80.4883H72C73.0609 80.4883 74.0783 80.0669 74.8284 79.3167C75.5786 78.5666 76 77.5491 76 76.4883V54.4883L62 40.4883Z" stroke="#393939" stroke-width="2" stroke-linecap="round" stroke-linejoin="round"/>
<path d="M62 40.4883V54.4883H76" stroke="#393939" stroke-width="2" stroke-linecap="round" stroke-linejoin="round"/>
</svg>
