<svg width="16" height="16" viewBox="0 0 16 16" fill="none" xmlns="http://www.w3.org/2000/svg">
<path d="M12.6667 4.66666H3.33335L7.06668 8.8711V13.2361L8.93335 14.125V8.8711L12.6667 4.66666Z" fill="#393939"/>
<path fill-rule="evenodd" clip-rule="evenodd" d="M3.10531 4.56418C3.14566 4.47441 3.23492 4.41666 3.33335 4.41666H12.6667C12.7651 4.41666 12.8544 4.47441 12.8947 4.56418C12.9351 4.65396 12.919 4.75905 12.8536 4.83265L9.18335 8.96608V14.125C9.18335 14.2108 9.13936 14.2906 9.06682 14.3364C8.99428 14.3822 8.90332 14.3876 8.82586 14.3507L6.9592 13.4618C6.87214 13.4204 6.81668 13.3325 6.81668 13.2361V8.96608L3.14641 4.83265C3.08106 4.75905 3.06497 4.65396 3.10531 4.56418ZM3.88967 4.91666L7.25362 8.70511C7.29425 8.75086 7.31668 8.80992 7.31668 8.8711V13.0783L8.68335 13.7291V8.8711C8.68335 8.80992 8.70578 8.75086 8.74641 8.70511L12.1104 4.91666H3.88967Z" fill="#393939"/>
</svg>
