<svg xmlns="http://www.w3.org/2000/svg" width="40.5" height="40" viewBox="0 0 40.5 40">
  <g id="img_40_britivevault" transform="translate(0.5)">
    <g id="Group_1990" data-name="Group 1990">
      <rect id="Rectangle_352" data-name="Rectangle 352" width="40" height="40" fill="none" opacity="0.14"/>
      <path id="Vector" d="M2.1,0H0" transform="translate(34.471 21.204) rotate(-90)" fill="none" stroke="#0c5389" stroke-linecap="round" stroke-linejoin="round" stroke-width="1"/>
      <path id="Vector-2" data-name="Vector" d="M5.572,0H0" transform="translate(0 13.606)" fill="none" stroke="#0c5389" stroke-linecap="round" stroke-linejoin="round" stroke-width="1"/>
      <path id="Vector-3" data-name="Vector" d="M5.572,0H0" transform="translate(0 27.142)" fill="none" stroke="#0c5389" stroke-linecap="round" stroke-linejoin="round" stroke-width="1"/>
      <path id="Subtraction_2" data-name="Subtraction 2" d="M5.909,15.719H5.8A5.807,5.807,0,0,1,0,10V0H1.417V6.215a6.045,6.045,0,0,1,2.014-1.65,5.522,5.522,0,0,1,2.382-.544H5.94A5.425,5.425,0,0,1,9.89,5.737,5.748,5.748,0,0,1,11.56,9.9,5.673,5.673,0,0,1,9.88,14.012,5.5,5.5,0,0,1,5.909,15.719Zm-.2-1.372h0l0,0h.039a4.276,4.276,0,0,0,2.173-.594,4.385,4.385,0,0,0,1.6-1.65,4.517,4.517,0,0,0,.6-2.254,4.591,4.591,0,0,0-.6-2.26A4.342,4.342,0,0,0,7.9,5.915a4.243,4.243,0,0,0-2.164-.594h-.01A4.469,4.469,0,0,0,3.5,5.915,4.127,4.127,0,0,0,1.882,7.53a4.622,4.622,0,0,0-.568,2.279,4.462,4.462,0,0,0,1.276,3.239,4.221,4.221,0,0,0,3.037,1.3h.081Zm1.318-2.872h0l-.048,0-.048,0a1.6,1.6,0,0,1-1.1-.567.3.3,0,0,1-.013-.392.293.293,0,0,1,.211-.108h.016a.3.3,0,0,1,.206.085,1.212,1.212,0,0,0,.715.414l.061,0a.952.952,0,0,0,.658-.262A.854.854,0,0,0,7.4,9.2a.353.353,0,0,0-.055-.019,1.317,1.317,0,0,0-.331-.046c-.564,0-.936.43-1.438,1.087-.411.537-.921,1.206-1.688,1.206a1.713,1.713,0,0,1-.715-.173,1.347,1.347,0,0,1-.761-1.244,1.371,1.371,0,0,1,.4-.985,1.655,1.655,0,0,1,1.07-.483.059.059,0,0,0,.053-.039,1.576,1.576,0,0,1,2.645-.518.265.265,0,0,1,.071.216.26.26,0,0,1-.124.19l-.034.021a.265.265,0,0,1-.327-.038,1.043,1.043,0,0,0-.745-.334,1.027,1.027,0,0,0-.879.51.061.061,0,0,0,0,.051.059.059,0,0,0,.037.035,1.633,1.633,0,0,1,.41.215.264.264,0,0,1,.025.41l-.034.031A.267.267,0,0,1,4.8,9.36a.264.264,0,0,1-.161-.054,1.13,1.13,0,0,0-1.422.121A.8.8,0,0,0,2.978,10a.779.779,0,0,0,.448.749,1.1,1.1,0,0,0,.462.116c.45,0,.767-.373,1.237-.986a2.546,2.546,0,0,1,1.888-1.31,1.922,1.922,0,0,1,.53.079l.026.009a1.424,1.424,0,0,1,.5,2.4A1.5,1.5,0,0,1,7.025,11.475Z" transform="translate(14.467 12.296)" fill="#0c5389"/>
      <g id="Rectangle_248" data-name="Rectangle 248" transform="translate(0.465 4)" fill="none" stroke="#0c5389" stroke-width="1">
        <rect width="39.535" height="31.875" rx="4" stroke="none"/>
        <rect x="0.5" y="0.5" width="38.535" height="30.875" rx="3.5" fill="none"/>
      </g>
      <g id="Rectangle_248-2" data-name="Rectangle 248" transform="translate(3.513 7.493)" fill="none" stroke="#0c5389" stroke-width="1">
        <rect width="33.44" height="25.325" rx="4" stroke="none"/>
        <rect x="0.5" y="0.5" width="32.44" height="24.325" rx="3.5" fill="none"/>
      </g>
    </g>
  </g>
</svg>
