<svg id="img_40_roles" xmlns="http://www.w3.org/2000/svg" width="40.002" height="40" viewBox="0 0 40.002 40">
  <g id="Group_1999" data-name="Group 1999" transform="translate(0.001 8)">
    <rect id="base" width="40" height="40" transform="translate(0.001 -8)" fill="none"/>
    <g id="Ellipse_8" data-name="Ellipse 8" transform="translate(14.052 1.083)" fill="none" stroke="#0c5389" stroke-width="1">
      <circle cx="6.069" cy="6.069" r="6.069" stroke="none"/>
      <circle cx="6.069" cy="6.069" r="5.569" fill="none"/>
    </g>
    <g id="Path_1390" data-name="Path 1390" transform="translate(29.669 24.575) rotate(-180)" fill="none">
      <path d="M19.278.031A9.739,9.739,0,0,1,9.639,9.867,9.739,9.739,0,0,1,0,.031C-.03-.02,19.214,0,19.278.031Z" stroke="none"/>
      <path d="M 7.951201438903809 1.000001907348633 C 4.358115196228027 1.000001907348633 2.183536529541016 1.005856513977051 1.053066253662109 1.013459205627441 C 1.532129287719727 5.425312519073486 5.199832916259766 8.867232322692871 9.638801574707031 8.867232322692871 C 14.07602500915527 8.867232322692871 17.74258232116699 5.428091049194336 18.22396087646484 1.018733978271484 C 16.35070037841797 1.008238792419434 12.14137077331543 1.000001907348633 7.951201438903809 1.000001907348633 M 7.951196670532227 -9.5367431640625e-07 C 13.24629497528076 -9.5367431640625e-07 19.24234771728516 0.01375865936279297 19.2775707244873 0.03110218048095703 C 19.2775707244873 5.463451862335205 14.9621410369873 9.867232322692871 9.638801574707031 9.867232322692871 C 4.315461158752441 9.867232322692871 3.0517578125e-05 5.463451862335205 3.0517578125e-05 0.03110218048095703 C -0.01329803466796875 0.008671760559082031 3.74827766418457 -9.5367431640625e-07 7.951196670532227 -9.5367431640625e-07 Z" stroke="none" fill="#0c5389"/>
    </g>
    <g id="Ellipse_8-2" data-name="Ellipse 8" transform="translate(29.668)" fill="none" stroke="#0c5389" stroke-width="1">
      <ellipse cx="3.873" cy="4.088" rx="3.873" ry="4.088" stroke="none"/>
      <ellipse cx="3.873" cy="4.088" rx="3.373" ry="3.588" fill="none"/>
    </g>
    <g id="Path_1390-2" data-name="Path 1390" transform="translate(40 15.622) rotate(-180)" fill="none">
      <path d="M12.92,0A6.527,6.527,0,0,1,6.46,6.592,6.527,6.527,0,0,1,0,0C-.022.01,12.916.01,12.92,0Z" stroke="none"/>
      <path d="M 1.088240623474121 1.004360675811768 C 1.551444053649902 3.610307693481445 3.783897399902344 5.592077732086182 6.459831237792969 5.592077732086182 C 9.135581016540527 5.592077732086182 11.36798095703125 3.610192060470581 11.83139514923096 1.004509449005127 C 11.57219219207764 1.004954814910889 11.27428150177002 1.005349159240723 10.94583129882812 1.005697727203369 C 8.545129776000977 1.00822639465332 4.512594223022461 1.008147716522217 2.069231033325195 1.00565767288208 C 1.702932357788086 1.005278587341309 1.372311592102051 1.004847049713135 1.088240623474121 1.004360675811768 M 3.147125244140625e-05 -2.384185791015625e-06 C -6.67572021484375e-06 3.099441528320312e-05 -6.67572021484375e-06 1.430511474609375e-05 3.147125244140625e-05 -2.384185791015625e-06 Z M 12.9196310043335 -2.384185791015625e-06 C 12.9196310043335 3.640707731246948 10.02748107910156 6.592077732086182 6.459831237792969 6.592077732086182 C 2.892181396484375 6.592077732086182 3.147125244140625e-05 3.640707731246948 3.147125244140625e-05 -2.384185791015625e-06 C 0.02218437194824219 0.009868144989013672 12.91583728790283 0.01034069061279297 12.9196310043335 -2.384185791015625e-06 Z" stroke="none" fill="#0c5389"/>
    </g>
    <g id="Ellipse_8-3" data-name="Ellipse 8" transform="translate(2.587)" fill="none" stroke="#0c5389" stroke-width="1">
      <ellipse cx="3.873" cy="4.088" rx="3.873" ry="4.088" stroke="none"/>
      <ellipse cx="3.873" cy="4.088" rx="3.373" ry="3.588" fill="none"/>
    </g>
    <g id="Path_1390-3" data-name="Path 1390" transform="translate(12.919 15.666) rotate(-180)" fill="none">
      <path d="M12.92.044A6.527,6.527,0,0,1,6.46,6.636,6.527,6.527,0,0,1,0,.044C-.011-.02,12.862-.01,12.92.044Z" stroke="none"/>
      <path d="M 6.034174919128418 1.000001907348633 C 3.681586265563965 1.000001907348633 2.036648750305176 1.007325172424316 1.082664489746094 1.017037868499756 C 1.533329010009766 3.63859486579895 3.773031234741211 5.636481761932373 6.45981502532959 5.636481761932373 C 9.145486831665039 5.636481761932373 11.38448905944824 3.640023469924927 11.83643531799316 1.020053863525391 C 10.61474609375 1.00813627243042 8.419139862060547 1.000001907348633 6.034174919128418 1.000001907348633 M 6.034175395965576 2.86102294921875e-06 C 9.38556957244873 2.86102294921875e-06 12.889817237854 0.01619243621826172 12.91961479187012 0.04441165924072266 C 12.91961479187012 3.68511176109314 10.02746486663818 6.636481761932373 6.45981502532959 6.636481761932373 C 2.892154693603516 6.636481761932373 4.76837158203125e-06 3.68511176109314 4.76837158203125e-06 0.04441165924072266 C -0.005089759826660156 0.01372575759887695 2.949887275695801 2.86102294921875e-06 6.034175395965576 2.86102294921875e-06 Z" stroke="none" fill="#0c5389"/>
    </g>
  </g>
</svg>
