<svg xmlns="http://www.w3.org/2000/svg" width="40" height="40.5" viewBox="0 0 40 40.5">
  <g id="img_40_static_secret_template" transform="translate(0 0.5)">
    <g id="Group_1995" data-name="Group 1995">
      <rect id="Rectangle_348" data-name="Rectangle 348" width="40" height="40" fill="none"/>
      <path id="Vector" d="M19.918,0H3.984A4.015,4.015,0,0,0,1.167,1.149,3.892,3.892,0,0,0,0,3.922V35.3a3.892,3.892,0,0,0,1.167,2.773,4.015,4.015,0,0,0,2.817,1.149h23.9A4.015,4.015,0,0,0,30.7,38.074,3.892,3.892,0,0,0,31.869,35.3V11.767Z" transform="translate(3.521)" fill="none" stroke="#0c5389" stroke-linecap="round" stroke-linejoin="round" stroke-width="1"/>
      <path id="Vector-2" data-name="Vector" d="M0,0V11.767H11.951" transform="translate(23.438)" fill="none" stroke="#0c5389" stroke-linecap="round" stroke-linejoin="round" stroke-width="1"/>
      <path id="Vector-3" data-name="Vector" d="M1.287,0h9.007A1.3,1.3,0,0,1,11.58,1.317v4.61a1.3,1.3,0,0,1-1.287,1.317H1.287A1.3,1.3,0,0,1,0,5.927V1.317A1.3,1.3,0,0,1,1.287,0Z" transform="translate(13.791 19.41)" fill="none" stroke="#0c5389" stroke-linecap="round" stroke-linejoin="round" stroke-width="1"/>
      <path id="Vector-4" data-name="Vector" d="M0,5.927V3.293A3.333,3.333,0,0,1,.942.964a3.165,3.165,0,0,1,4.549,0,3.333,3.333,0,0,1,.942,2.328V5.927" transform="translate(16.365 13.483)" fill="none" stroke="#0c5389" stroke-linecap="round" stroke-linejoin="round" stroke-width="1"/>
    </g>
  </g>
</svg>