<svg xmlns="http://www.w3.org/2000/svg" width="38.163" height="40.5" viewBox="0 0 38.163 40.5">
  <g id="img_40_pwd_policy" transform="translate(0 0.5)">
    <g id="Group_1997" data-name="Group 1997">
      <rect id="Rectangle_349" data-name="Rectangle 349" width="38.163" height="40" fill="none"/>
      <path id="Vector" d="M16.457,0H3.291A3.352,3.352,0,0,0,.964.931,3.124,3.124,0,0,0,0,3.178V28.6A3.124,3.124,0,0,0,.964,30.85a3.352,3.352,0,0,0,2.327.931H23.04a3.352,3.352,0,0,0,2.327-.931,3.124,3.124,0,0,0,.964-2.247V9.534Z" transform="translate(6.464)" fill="none" stroke="#0c5389" stroke-linecap="round" stroke-linejoin="round" stroke-width="1"/>
      <path id="Vector-2" data-name="Vector" d="M0,0V9.534H9.874" transform="translate(22.921)" fill="none" stroke="#0c5389" stroke-linecap="round" stroke-linejoin="round" stroke-width="1"/>
      <path id="Vector-3" data-name="Vector" d="M13.166,0H0" transform="translate(13.047 17.479)" fill="none" stroke="#0c5389" stroke-linecap="round" stroke-linejoin="round" stroke-width="1"/>
      <path id="Vector-4" data-name="Vector" d="M13.166,0H0" transform="translate(13.047 23.836)" fill="none" stroke="#0c5389" stroke-linecap="round" stroke-linejoin="round" stroke-width="1"/>
      <path id="Vector-5" data-name="Vector" d="M3.291,0H0" transform="translate(13.047 11.123)" fill="none" stroke="#0c5389" stroke-linecap="round" stroke-linejoin="round" stroke-width="1"/>
      <ellipse id="Ellipse_9" data-name="Ellipse 9" cx="1.768" cy="1.707" rx="1.768" ry="1.707" transform="translate(3.635 35.019)" fill="#0c5389"/>
      <ellipse id="Ellipse_10" data-name="Ellipse 10" cx="1.768" cy="1.707" rx="1.768" ry="1.707" transform="translate(9.293 35.019)" fill="#0c5389"/>
      <ellipse id="Ellipse_12" data-name="Ellipse 12" cx="1.768" cy="1.707" rx="1.768" ry="1.707" transform="translate(14.951 35.019)" fill="#0c5389"/>
      <ellipse id="Ellipse_13" data-name="Ellipse 13" cx="1.768" cy="1.707" rx="1.768" ry="1.707" transform="translate(20.609 35.019)" fill="#0c5389"/>
      <ellipse id="Ellipse_14" data-name="Ellipse 14" cx="1.768" cy="1.707" rx="1.768" ry="1.707" transform="translate(26.268 35.019)" fill="#0c5389"/>
      <ellipse id="Ellipse_15" data-name="Ellipse 15" cx="1.768" cy="1.707" rx="1.768" ry="1.707" transform="translate(31.926 35.019)" fill="#0c5389"/>
    </g>
  </g>
</svg>
