<svg xmlns="http://www.w3.org/2000/svg" width="35" height="40.5" viewBox="0 0 35 40.5">
  <g id="img_40_Policies" transform="translate(0 0.5)">
    <g id="Group_2000" data-name="Group 2000" transform="translate(0 0)">
      <path id="Subtraction_5" data-name="Subtraction 5" d="M28.738,39.491H4.106a4.16,4.16,0,0,1-2.9-1.158A3.9,3.9,0,0,1,0,35.541V3.949A3.851,3.851,0,0,1,1.2,1.156,4.162,4.162,0,0,1,4.106,0H20.527L32.844,11.846v23.7a3.9,3.9,0,0,1-1.2,2.792A4.16,4.16,0,0,1,28.738,39.491Z" transform="translate(1)" fill="none" stroke="#0c5389" stroke-linecap="round" stroke-linejoin="round" stroke-width="1"/>
      <path id="Vector" d="M0,0V11.847H12.316" transform="translate(21.527 0.884)" fill="none" stroke="#0c5389" stroke-linecap="round" stroke-linejoin="round" stroke-width="1"/>
      <line id="Line_478" data-name="Line 478" x2="12.598" transform="translate(5.678 9.585)" fill="none" stroke="#0c5389" stroke-width="1"/>
      <line id="Line_479" data-name="Line 479" x2="5.6" transform="translate(5.678 14.889)" fill="none" stroke="#0c5389" stroke-width="1"/>
      <path id="Path_1428" data-name="Path 1428" d="M0,0H2.468" transform="translate(5.678 20.194)" fill="none" stroke="#0c5389" stroke-width="1"/>
      <path id="Path_1429" data-name="Path 1429" d="M0,0H2.707" transform="translate(28.166 20.194)" fill="none" stroke="#0c5389" stroke-width="1"/>
      <line id="Line_481" data-name="Line 481" x2="3.02" transform="translate(27.854 25.498)" fill="none" stroke="#0c5389" stroke-width="1"/>
      <line id="Line_535" data-name="Line 535" x2="2.947" transform="translate(5.678 25.498)" fill="none" stroke="#0c5389" stroke-width="1"/>
      <line id="Line_534" data-name="Line 534" x2="5.009" transform="translate(25.863 30.802)" fill="none" stroke="#0c5389" stroke-width="1"/>
      <line id="Line_536" data-name="Line 536" x2="4.937" transform="translate(5.678 30.802)" fill="none" stroke="#0c5389" stroke-width="1"/>
      <path id="Path_1427" data-name="Path 1427" d="M-5040.1-1961.3l-9.4,2.661s-.89,8.077,1.359,12.844,7.983,6.257,7.983,6.257,5.572-1.49,8.046-6.257,1.509-12.844,1.509-12.844Z" transform="translate(5058.287 1975.172)" fill="none"/>
      <path id="Path_1425" data-name="Path 1425" d="M-5042.482-1961.3l-7.063,2s-.668,6.07,1.021,9.652,6,4.7,6,4.7,4.185-1.12,6.046-4.7,1.133-9.652,1.133-9.652Z" transform="translate(5060.68 1977.877)" fill="none" stroke="#0c5389" stroke-width="1"/>
      <path id="Path_1426" data-name="Path 1426" d="M-18887.557,889.5l2.682,2.662,5.018-4.938" transform="translate(18902.592 -865.598)" fill="none" stroke="#0c5389" stroke-linecap="round" stroke-width="1"/>
      <rect id="Rectangle_402" data-name="Rectangle 402" width="35" height="40" fill="none"/>
    </g>
  </g>
</svg>
