<svg width="48" height="48" viewBox="0 0 48 48" fill="none" xmlns="http://www.w3.org/2000/svg">
<path d="M16 34L24 42L32 34" stroke="grey" stroke-width="2" stroke-linecap="round" stroke-linejoin="round"/>
<path d="M24 24V42" stroke="white" stroke-width="2" stroke-linecap="round" stroke-linejoin="round"/>
<path d="M41.7584 36.1799C43.4972 34.9571 44.8011 33.2122 45.481 31.1982C46.1608 29.1842 46.1812 27.0059 45.5392 24.9795C44.8972 22.9531 43.6261 21.184 41.9105 19.929C40.1949 18.6739 38.1241 17.9982 35.9984 17.9999H33.4784C32.8769 15.6556 31.7514 13.4784 30.1866 11.632C28.6219 9.78569 26.6587 8.31839 24.4448 7.34057C22.2309 6.36276 19.8241 5.89992 17.4055 5.9869C14.9868 6.07388 12.6194 6.70841 10.4815 7.84272C8.34359 8.97703 6.49085 10.5816 5.06278 12.5355C3.6347 14.4895 2.6685 16.742 2.23692 19.1234C1.80534 21.5048 1.91962 23.9531 2.57116 26.2839C3.2227 28.6148 4.39452 30.7674 5.9984 32.5799" stroke="white" stroke-width="2" stroke-linecap="round" stroke-linejoin="round"/>
</svg>
