<svg xmlns="http://www.w3.org/2000/svg" width="24.828" height="24.828" viewBox="0 0 24.828 24.828"><defs><style>.a{fill:none;stroke:#161616;stroke-linecap:round;stroke-linejoin:round;stroke-width:2px;}</style></defs><g transform="translate(0.414 0.414)"><path class="a" d="M16.94,13.94A10.07,10.07,0,0,1,11,16C4,16,0,8,0,8A18.45,18.45,0,0,1,5.06,2.06Zm-3.82-3.82A3,3,0,1,1,8.88,5.88" transform="translate(1 4)"/><path class="a" d="M8.9.24A9.12,9.12,0,0,1,11,0c7,0,11,8,11,8a18.5,18.5,0,0,1-2.16,3.19" transform="translate(1 4)"/><path class="a" d="M0,0,22,22" transform="translate(1 1)"/></g></svg>