<svg xmlns="http://www.w3.org/2000/svg" width="24" height="24" viewBox="0 0 24 24"><defs><style>.a{fill:none;}.b{fill:#a8a8a8;}</style></defs><g transform="translate(-736 -723)"><g transform="translate(736 723)"><rect class="a" width="24" height="24"/><path class="b" d="M5.431.664a.75.75,0,0,1,1.139,0l4.369,5.1A.75.75,0,0,1,10.369,7H1.631a.75.75,0,0,1-.569-1.238Z" transform="translate(6 3.5)"/><path class="b" d="M5.431.664a.75.75,0,0,1,1.139,0l4.369,5.1A.75.75,0,0,1,10.369,7H1.631a.75.75,0,0,1-.569-1.238Z" transform="translate(18 20.5) rotate(180)"/></g></g></svg>